<?xml version="1.0" encoding="UTF-8"?>
<svg width="110px" height="110px" viewBox="0 0 110 110" version="1.1" xmlns="http://www.w3.org/2000/svg" xmlns:xlink="http://www.w3.org/1999/xlink">
    <!-- Generator: Sketch 51.2 (57519) - http://www.bohemiancoding.com/sketch -->
    <title>logo/app@1x</title>
    <desc>Created with Sketch.</desc>
    <defs></defs>
    <g id="logo/app" stroke="none" stroke-width="1" fill="none" fill-rule="evenodd">
        <g id="pointer">
            <path d="M34,110 L27.9019103,110 C18.3172272,110 14.7540845,108.987281 11.1896274,107.085608 C7.62517021,105.183934 4.82776337,102.393305 2.92147082,98.837484 C1.01517826,95.2816632 9.68669387e-15,91.7271537 0,82.1656934 L0,75" id="corner4" stroke="#FFFFFF" stroke-width="5" stroke-linecap="round"></path>
            <path d="M0,35 L0,27.8343066 C9.68669387e-15,18.2728463 1.01517826,14.7183368 2.92147082,11.162516 C4.82776337,7.60669516 7.62517021,4.81606616 11.1896274,2.91439237 C14.7540845,1.01271858 18.3172272,0 27.9019103,0 L34,0" id="corner3" stroke="#FFFFFF" stroke-width="5" stroke-linecap="round"></path>
            <path d="M76,0 L82.0980897,0 C91.6827728,0 95.2459155,1.01271858 98.8103726,2.91439237 C102.37483,4.81606616 105.172237,7.60669516 107.078529,11.162516 C108.984822,14.7183368 110,18.2728463 110,27.8343066 L110,35" id="corner2" stroke="#FFFFFF" stroke-width="5" stroke-linecap="round"></path>
            <path d="M110,75 L110,82.1656934 C110,91.7271537 108.984822,95.2816632 107.078529,98.837484 C105.172237,102.393305 102.37483,105.183934 98.8103726,107.085608 C95.2459155,108.987281 91.6827728,110 82.0980897,110 L76,110" id="corner1" stroke="#FFFFFF" stroke-width="5" stroke-linecap="round"></path>
            <g id="car-body" transform="translate(22.000000, 33.000000)">
                <path d="M9,17 L14.5772428,3.68232249 C15.5113703,1.45175638 17.6932654,4.44228595e-16 20.1115333,0 L46.1431802,3.55271368e-15 C48.4609236,5.18552079e-15 50.5713921,1.33493048 51.5644938,3.42913279 L58,17" id="Shape" stroke="#FFFFFF" stroke-width="4" stroke-linecap="round"></path>
                <path d="M57,40 L9,40 C5.13400675,40 2,36.8659932 2,33 L2,25 C2,21.1340068 5.13400675,18 9,18 L57,18 C60.8659932,18 64,21.1340068 64,25 L64,33 C64,36.8659932 60.8659932,40 57,40 Z" id="Shape" stroke="#FFFFFF" stroke-width="4" stroke-linecap="round"></path>
                <path d="M9,39 L12,39 C13.1045695,39 14,39.8954305 14,41 L14,47 C14,48.1045695 13.1045695,49 12,49 L9,49 C7.8954305,49 7,48.1045695 7,47 L7,41 C7,39.8954305 7.8954305,39 9,39 Z" id="Rectangle-6" fill="#FFFFFF"></path>
                <path d="M12,26 L21,26 C22.1045695,26 23,26.8954305 23,28 L23,29 C23,30.1045695 22.1045695,31 21,31 L12,31 C10.8954305,31 10,30.1045695 10,29 L10,28 C10,26.8954305 10.8954305,26 12,26 Z" id="Rectangle-6-Copy-2" fill="#FFFFFF"></path>
                <path d="M2,10 L9,10 C10.1045695,10 11,10.8954305 11,12 C11,13.1045695 10.1045695,14 9,14 L2,14 C0.8954305,14 1.3527075e-16,13.1045695 0,12 C-1.3527075e-16,10.8954305 0.8954305,10 2,10 Z" id="Rectangle-6-Copy-4" fill="#FFFFFF"></path>
                <path d="M57,10 L65,10 C66.1045695,10 67,10.8954305 67,12 C67,13.1045695 66.1045695,14 65,14 L57,14 C55.8954305,14 55,13.1045695 55,12 C55,10.8954305 55.8954305,10 57,10 Z" id="Rectangle-6-Copy-5" fill="#FFFFFF"></path>
                <path d="M45,26 L54,26 C55.1045695,26 56,26.8954305 56,28 L56,29 C56,30.1045695 55.1045695,31 54,31 L45,31 C43.8954305,31 43,30.1045695 43,29 L43,28 C43,26.8954305 43.8954305,26 45,26 Z" id="Rectangle-6-Copy-3" fill="#FFFFFF"></path>
                <path d="M54,39 L57,39 C58.1045695,39 59,39.8954305 59,41 L59,47 C59,48.1045695 58.1045695,49 57,49 L54,49 C52.8954305,49 52,48.1045695 52,47 L52,41 C52,39.8954305 52.8954305,39 54,39 Z" id="Rectangle-6-Copy" fill="#FFFFFF"></path>
            </g>
        </g>
    </g>
</svg>